<svg width="300" height="200" viewBox="0 0 300 200" xmlns="http://www.w3.org/2000/svg">
  <!-- Gradient Definitions -->
  <defs>
    <radialGradient id="glow" cx="50%" cy="50%" r="50%" fx="50%" fy="50%">
      <stop offset="0%" style="stop-color:rgba(64,196,255,0.2)"/>
      <stop offset="100%" style="stop-color:rgba(64,196,255,0)"/>
    </radialGradient>
    
    <linearGradient id="gradient1" x1="0%" y1="0%" x2="100%" y2="100%">
      <stop offset="0%" style="stop-color:#4CAF50"/>
      <stop offset="100%" style="stop-color:#81C784"/>
    </linearGradient>
    
    <linearGradient id="gradient2" x1="0%" y1="0%" x2="100%" y2="100%">
      <stop offset="0%" style="stop-color:#2196F3"/>
      <stop offset="100%" style="stop-color:#90CAF9"/>
    </linearGradient>
  </defs>

  <!-- Background glow -->
  <circle cx="150" cy="100" r="90" fill="url(#glow)"/>

  <!-- Main Design Group -->
  <g transform="translate(75,30)">
    <!-- Stacked Forms Effect -->
    <g transform="rotate(-15, 150, 100)">
      <!-- Bottom layer -->
      <rect x="0" y="20" width="150" height="100" rx="8" 
            fill="#1a237e" opacity="0.3"/>
      
      <!-- Middle layer -->
      <rect x="10" y="10" width="150" height="100" rx="8" 
            fill="#311b92" opacity="0.5"/>
      
      <!-- Top layer (main form) -->
      <rect x="20" y="0" width="150" height="100" rx="8" 
            fill="url(#gradient1)"/>

      <!-- Form Elements -->
      <rect x="40" y="20" width="80" height="10" rx="2" 
            fill="white" opacity="0.9"/>
      <rect x="40" y="40" width="110" height="8" rx="2" 
            fill="white" opacity="0.7"/>
      <rect x="40" y="55" width="90" height="8" rx="2" 
            fill="white" opacity="0.7"/>
      <rect x="40" y="70" width="100" height="8" rx="2" 
            fill="white" opacity="0.7"/>
    </g>

    <!-- Decorative Elements -->
    <circle cx="30" cy="30" r="15" 
            fill="url(#gradient2)" opacity="0.8"/>
    <rect x="160" y="40" width="20" height="20" 
          transform="rotate(45 170 50)" 
          fill="#FF4081" opacity="0.8"/>
    <polygon points="40,140 60,120 60,160" 
             fill="#FFC107" opacity="0.8"/>

    <!-- Floating Particles -->
    <g class="particles">
      <circle cx="180" cy="30" r="4" fill="#90CAF9"/>
      <circle cx="25" cy="120" r="3" fill="#F48FB1"/>
      <circle cx="170" cy="140" r="3" fill="#FFE082"/>
      <circle cx="45" cy="90" r="2" fill="#B39DDB"/>
      <circle cx="190" cy="100" r="2" fill="#80DEEA"/>
    </g>

    <!-- Connecting Lines -->
    <path d="M30,30 L45,90 M170,50 L180,30 M50,130 L25,120" 
          stroke="rgba(255,255,255,0.3)" 
          stroke-width="1"/>
  </g>

  <!-- Optional: Add subtle animation with CSS -->
  <style>
    .particles circle {
      animation: float 3s infinite ease-in-out;
    }
    @keyframes float {
      0%, 100% { transform: translateY(0); }
      50% { transform: translateY(-5px); }
    }
  </style>
</svg> 